<svg width="21" height="20" viewBox="0 0 21 20" fill="none" xmlns="http://www.w3.org/2000/svg">
<path d="M17.0037 9.44248C17.1495 9.33746 17.2576 9.19094 17.3129 9.02348C17.3683 8.85602 17.368 8.67601 17.3122 8.50869C17.2564 8.34138 17.1479 8.19514 17.0019 8.0905C16.8558 7.98585 16.6795 7.92804 16.4978 7.92517L12.9681 7.7962C12.9508 7.79504 12.9341 7.78905 12.9202 7.77895C12.9063 7.76886 12.8957 7.75509 12.8897 7.7393L11.67 4.55293C11.6087 4.39082 11.4974 4.25084 11.3512 4.15194C11.2049 4.05304 11.0307 4 10.8523 4C10.6738 4 10.4997 4.05304 10.3534 4.15194C10.2072 4.25084 10.0959 4.39082 10.0346 4.55293L8.8188 7.75068C8.81279 7.76647 8.80219 7.78024 8.78827 7.79033C8.77435 7.80043 8.75772 7.80642 8.74036 7.80758L5.21068 7.93655C5.02895 7.93942 4.8527 7.99723 4.70664 8.10188C4.56059 8.20652 4.45206 8.35276 4.39627 8.52007C4.34049 8.68739 4.34023 8.8674 4.39556 9.03486C4.45088 9.20232 4.559 9.34884 4.70476 9.45386L7.4736 11.5591C7.48746 11.5697 7.49781 11.5839 7.50339 11.6001C7.50897 11.6163 7.50952 11.6337 7.50498 11.6502L6.55196 14.9162C6.50258 15.0825 6.50736 15.2595 6.56566 15.4231C6.62397 15.5867 6.73296 15.7289 6.87781 15.8305C7.02266 15.932 7.19634 15.988 7.37522 15.9907C7.5541 15.9934 7.7295 15.9427 7.87755 15.8456L10.8033 13.9489C10.8177 13.9393 10.8348 13.9341 10.8523 13.9341C10.8698 13.9341 10.8869 13.9393 10.9013 13.9489L13.827 15.8456C13.9731 15.946 14.1478 16 14.3271 16C14.5063 16 14.681 15.946 14.8271 15.8456C14.972 15.745 15.0811 15.6034 15.1394 15.4404C15.1977 15.2773 15.2023 15.1009 15.1526 14.9352L14.1918 11.6578C14.1867 11.6413 14.1869 11.6237 14.1926 11.6075C14.1982 11.5912 14.2089 11.5769 14.2231 11.5667L17.0037 9.44248Z" fill="#F59E0B"/>
</svg>
