<svg width="25" height="24" viewBox="0 0 25 24" fill="none" xmlns="http://www.w3.org/2000/svg">
<path d="M10.4749 5.0018C10.2432 5.00135 10.0186 5.08254 9.84023 5.2313C9.73982 5.31506 9.65682 5.41793 9.59599 5.53402C9.53515 5.65011 9.49767 5.77714 9.48569 5.90782C9.47372 6.03851 9.48749 6.17029 9.5262 6.29562C9.56492 6.42094 9.62783 6.53735 9.71132 6.63818L14.1537 11.9863L9.86998 17.3444C9.78761 17.4465 9.7261 17.5639 9.68898 17.69C9.65186 17.8161 9.63987 17.9482 9.65369 18.079C9.66752 18.2097 9.70688 18.3364 9.76952 18.4518C9.83217 18.5672 9.91685 18.669 10.0187 18.7513C10.1213 18.8421 10.2415 18.9107 10.3716 18.9526C10.5018 18.9945 10.6391 19.0088 10.7751 18.9948C10.911 18.9807 11.0426 18.9385 11.1616 18.8709C11.2806 18.8032 11.3844 18.7116 11.4665 18.6016L16.2559 12.6149C16.4018 12.4364 16.4815 12.2124 16.4815 11.9813C16.4815 11.7502 16.4018 11.5263 16.2559 11.3477L11.2979 5.36101C11.1984 5.24026 11.0721 5.14481 10.9291 5.0824C10.7861 5.01999 10.6304 4.99238 10.4749 5.0018Z" fill="white"/>
</svg>
