<svg width="19" height="18" viewBox="0 0 19 18" fill="none" xmlns="http://www.w3.org/2000/svg">
<path d="M14.9586 7.12001C14.959 6.94625 14.8981 6.77784 14.7865 6.64404C14.7237 6.56874 14.6465 6.50649 14.5594 6.46086C14.4724 6.41523 14.3771 6.38712 14.2791 6.37814C14.1811 6.36916 14.0822 6.37948 13.9883 6.40852C13.8943 6.43756 13.8069 6.48474 13.7313 6.54736L9.72022 9.87916L5.70164 6.66635C5.62509 6.60458 5.53701 6.55844 5.44247 6.53061C5.34792 6.50277 5.24877 6.49377 5.15072 6.50414C5.05267 6.51451 4.95764 6.54403 4.87111 6.59101C4.78457 6.638 4.70823 6.70151 4.64648 6.77791C4.57835 6.85486 4.52696 6.94497 4.49554 7.04259C4.46412 7.14021 4.45334 7.24323 4.46388 7.34519C4.47442 7.44715 4.50605 7.54584 4.55679 7.63507C4.60753 7.7243 4.67628 7.80215 4.75873 7.86372L9.24877 11.4558C9.38267 11.5652 9.55063 11.625 9.72397 11.625C9.8973 11.625 10.0653 11.5652 10.1992 11.4558L14.6892 7.73729C14.7798 7.66268 14.8514 7.56791 14.8982 7.46066C14.945 7.35341 14.9657 7.23671 14.9586 7.12001Z" fill="white"/>
</svg>
