<svg width="25" height="24" viewBox="0 0 25 24" fill="none" xmlns="http://www.w3.org/2000/svg">
<path d="M12.4815 1C14.8685 1 17.1576 1.99337 18.8455 3.76159C20.5333 5.5298 21.4815 7.92801 21.4815 10.4286C21.4815 14.934 18.579 19.081 12.8835 22.8776C12.7633 22.9575 12.6239 23 12.4815 23C12.3391 23 12.1997 22.9575 12.0795 22.8776C6.38401 19.081 3.48151 14.934 3.48151 10.4286C3.48151 7.92801 4.42972 5.5298 6.11755 3.76159C7.80537 1.99337 10.0946 1 12.4815 1ZM12.4815 7.28576C11.6859 7.28576 10.9228 7.61689 10.3602 8.20629C9.79758 8.7957 9.48151 9.5951 9.48151 10.4286C9.48151 11.2622 9.79758 12.0616 10.3602 12.651C10.9228 13.2404 11.6859 13.5715 12.4815 13.5715C13.2772 13.5715 14.0402 13.2404 14.6028 12.651C15.1654 12.0616 15.4815 11.2622 15.4815 10.4286C15.4815 9.5951 15.1654 8.7957 14.6028 8.20629C14.0402 7.61689 13.2772 7.28576 12.4815 7.28576Z" fill="#F59E0B"/>
</svg>
