<svg width="35" height="35" viewBox="0 0 35 35" fill="none" xmlns="http://www.w3.org/2000/svg">
<circle cx="17.5001" cy="17.5" r="17.5" fill="#D9D9D9"/>
<path d="M14.9622 11.5338C14.7865 11.7096 14.6877 11.948 14.6877 12.1966C14.6877 12.4452 14.7865 12.6836 14.9622 12.8594L19.6029 17.5L14.9622 22.1406C14.7915 22.3175 14.697 22.5543 14.6991 22.8001C14.7012 23.0459 14.7998 23.281 14.9737 23.4548C15.1475 23.6287 15.3826 23.7273 15.6284 23.7294C15.8742 23.7315 16.111 23.637 16.2879 23.4663L21.5913 18.1628C21.7671 17.987 21.8658 17.7486 21.8658 17.5C21.8658 17.2514 21.7671 17.013 21.5913 16.8372L16.2879 11.5338C16.1121 11.358 15.8736 11.2593 15.625 11.2593C15.3765 11.2593 15.138 11.358 14.9622 11.5338Z" fill="#B3B3B3"/>
</svg>
