<svg width="35" height="35" viewBox="0 0 35 35" fill="none" xmlns="http://www.w3.org/2000/svg">
<circle cx="17.5001" cy="17.5" r="17.5" fill="#D9D9D9"/>
<path d="M21.5914 23.455C21.7671 23.2792 21.8658 23.0408 21.8658 22.7922C21.8658 22.5436 21.7671 22.3052 21.5914 22.1294L16.9507 17.4888L21.5914 12.8481C21.7621 12.6713 21.8566 12.4345 21.8545 12.1887C21.8523 11.9429 21.7538 11.7077 21.5799 11.5339C21.4061 11.3601 21.171 11.2615 20.9252 11.2594C20.6794 11.2572 20.4425 11.3517 20.2657 11.5225L14.9623 16.8259C14.7865 17.0017 14.6878 17.2402 14.6878 17.4888C14.6878 17.7373 14.7865 17.9758 14.9623 18.1516L20.2657 23.455C20.4415 23.6308 20.68 23.7295 20.9285 23.7295C21.1771 23.7295 21.4155 23.6308 21.5914 23.455Z" fill="#B3B3B3"/>
</svg>
