<svg width="905" height="822" viewBox="0 0 905 822" fill="none" xmlns="http://www.w3.org/2000/svg">
<g opacity="0.3" filter="url(#filter0_f_2_27)">
<path fill-rule="evenodd" clip-rule="evenodd" d="M754.319 428.275C739.463 474.341 705.462 509.581 674.665 547.149C648.131 579.515 619.854 608.369 586.162 633.4C548.634 661.281 513.242 700.083 466.329 701.928C419.265 703.78 379.741 669.322 340.86 643.048C304.303 618.346 278.274 584.308 246.761 553.558C203.632 511.471 129.199 487.592 120.762 428.275C112.606 370.931 171.812 326.424 207.975 280.861C240.026 240.481 275.802 204.715 319.82 177.485C365.02 149.525 413.571 113.382 466.329 121.043C519.001 128.691 541.397 195.074 589.927 216.706C646.503 241.924 730.824 207.14 768.625 255.789C804.793 302.336 772.352 372.358 754.319 428.275Z" fill="#FFFA82"/>
</g>
<defs>
<filter id="filter0_f_2_27" x="0" y="0" width="905" height="822" filterUnits="userSpaceOnUse" color-interpolation-filters="sRGB">
<feFlood flood-opacity="0" result="BackgroundImageFix"/>
<feBlend mode="normal" in="SourceGraphic" in2="BackgroundImageFix" result="shape"/>
<feGaussianBlur stdDeviation="60" result="effect1_foregroundBlur_2_27"/>
</filter>
</defs>
</svg>
