<svg width="461" height="822" viewBox="0 0 461 822" fill="none" xmlns="http://www.w3.org/2000/svg">
<g opacity="0.3" filter="url(#filter0_f_2_27)">
<path fill-rule="evenodd" clip-rule="evenodd" d="M591.209 428.275C580.173 474.341 554.914 509.581 532.037 547.149C512.326 579.515 491.32 608.369 466.292 633.4C438.414 661.281 412.122 700.083 377.273 701.928C342.311 703.78 312.951 669.322 284.067 643.048C256.911 618.346 237.575 584.308 214.166 553.558C182.126 511.471 126.833 487.592 120.566 428.275C114.507 370.931 158.489 326.424 185.353 280.861C209.162 240.481 235.738 204.715 268.438 177.485C302.015 149.525 338.082 113.382 377.273 121.043C416.401 128.691 433.038 195.074 469.088 216.706C511.116 241.924 573.755 207.14 601.836 255.789C628.703 302.336 604.604 372.358 591.209 428.275Z" fill="#FFFA82"/>
</g>
<defs>
<filter id="filter0_f_2_27" x="3.05176e-05" y="0" width="734" height="822" filterUnits="userSpaceOnUse" color-interpolation-filters="sRGB">
<feFlood flood-opacity="0" result="BackgroundImageFix"/>
<feBlend mode="normal" in="SourceGraphic" in2="BackgroundImageFix" result="shape"/>
<feGaussianBlur stdDeviation="60" result="effect1_foregroundBlur_2_27"/>
</filter>
</defs>
</svg>
